<svg xmlns="http://www.w3.org/2000/svg" width="336" height="128" viewBox="-56 -48 1344 512">
    <polygon points="50,25 200,100 350,25 350,125 375,175 350,225 375,275 350,325 400,400 250,375 250,175 200,200 150,175 150,375 0,400 50,325 25,275 50,225 25,175 50,125" stroke="#223366" stroke-width="40"/>
    <polygon points="50,25 200,100 350,25 350,125 375,175 350,225 375,275 350,325 400,400 250,375 250,175 200,200 150,175 150,375 0,400 50,325 25,275 50,225 25,175 50,125" stroke="white" stroke-width="15" fill="white"/>
    <polygon points="50,25 200,100 350,25 350,125 350,325 400,400 250,375 250,175 200,200 150,175 150,375 0,400 50,325 50,100" stroke="white" fill="#ad1457"/>
    <g fill="white">
        <polygon points="60,125 85,175 60,225"/>
        <polygon points="60,225 85,275 60,325"/>
        <polygon points="340,125 315,175 340,225"/>
        <polygon points="340,225 315,275 340,325"/>
    </g>
    <g fill="white">
        <path d="m487.080017,297.720001l0,-30.600006q0,-36.539993 25.380005,-48.960007q13.320007,-6.299988 26.099976,-6.299988q43.559998,0 69.840027,20.519989q0,-20.339996 -11.880005,-32.220001t-45.359985,-11.87999l1.079956,-15.840012q29.880005,0 44.280029,6.840012q7.73999,4.139999 13.679993,8.189987t9.179993,10.710007t5.48999,11.610001t2.970032,13.410004q1.080017,12.959991 1.080017,27l0,109.800003q-38.340027,3.600006 -61.200012,3.600006q-80.820038,0 -80.640015,-65.880005zm20.160004,2.519989q0,30.600006 26.639984,39.779999q15.47998,5.580017 35.01001,5.580017t39.51001,-2.52002l0,-94.859985q-30.600037,-14.76001 -62.820007,-17.279999q-2.160034,-0.360001 -4.320007,-0.360001q-14.039978,0 -24.030029,8.639999t-9.98996,28.97998l0,32.040009z"/>
        <path d="m682.380005,360l0,-258.12001l20.700012,0l0,83.339996q18.179993,-13.139999 48.780029,-13.139999l0.899963,0q19.97998,0 34.380005,6.840012q31.320007,14.399994 31.320007,53.459991l0,127.62001l-20.340027,0l0,-126.360001q0,-19.080002 -10.259949,-29.880005q-12.600037,-12.960007 -37.440002,-12.960007t-47.340027,12.600006l0,156.600006l-20.700012,0z"/>
        <path d="m857.880005,297.720001l0,-30.600006q0,-36.539993 25.380005,-48.960007q13.320007,-6.299988 26.100037,-6.299988q43.559998,0 69.839966,20.519989q0,-20.339996 -11.880005,-32.220001t-45.359985,-11.87999l1.080017,-15.840012q29.880005,0 44.279968,6.840012q7.73999,4.139999 13.679993,8.189987t9.180054,10.710007t5.48999,11.610001t2.969971,13.410004q1.080017,12.959991 1.080017,27l0,109.800003q-38.340027,3.600006 -61.200012,3.600006q-80.820007,0 -80.640015,-65.880005zm20.160034,2.519989q0,30.600006 26.640015,39.779999q15.47998,5.580017 35.009949,5.580017t39.51001,-2.52002l0,-94.859985q-30.599976,-14.76001 -62.820007,-17.279999q-2.159973,-0.360001 -4.320007,-0.360001q-14.039978,0 -24.029968,8.639999t-9.98999,28.97998l0,32.040009z"/>
        <path d="m1058.400024,360l0,-258.12001l20.52002,0l0,258.12001l-20.52002,0z"/>
        <path d="m1135.800049,292.139984l0,-48.599991q0,-35.100006 17.819946,-53.729996t50.670044,-18.630005t50.939941,19.440002t18.090088,52.919998l0,48.599991q0,30.960022 -17.01001,51.210022t-51.300049,20.25t-51.75,-20.429993t-17.459961,-51.030029zm20.52002,3.779999q0,22.140015 13.140015,35.730011t35.819946,13.589996t35.01001,-13.410004t12.329956,-35.910004l0,-52.37999q0,-53.460007 -47.519897,-53.460007q-48.600098,0 -48.780029,53.460007l0,52.37999z"/>
    </g>
</svg>